<?xml version="1.0" standalone="no"?>
<!DOCTYPE svg PUBLIC "-//W3C//DTD SVG 20010904//EN"
 "http://www.w3.org/TR/2001/REC-SVG-20010904/DTD/svg10.dtd">
<svg version="1.0" xmlns="http://www.w3.org/2000/svg"
 width="1075.000000pt" height="605.000000pt" viewBox="0 0 1075.000000 605.000000"
 preserveAspectRatio="xMidYMid meet">
 
<g transform="translate(0.000000,605.000000) scale(0.100000,-0.100000)"
fill="#4d648d" stroke="none">
<path d="M4265 5943 c3 -16 69 -251 145 -523 76 -272 224 -801 329 -1175 104
-374 284 -1017 400 -1430 115 -412 287 -1027 381 -1365 95 -338 223 -795 284
-1015 l112 -400 287 -3 c224 -2 287 0 287 10 0 7 -22 91 -50 188 -27 96 -122
434 -210 750 -89 316 -236 841 -327 1165 -91 325 -229 820 -308 1100 -79 281
-229 818 -335 1195 -106 377 -245 874 -310 1105 l-117 420 -288 3 -287 2 7
-27z"/>
<path d="M1918 4097 l-1898 -802 0 -330 0 -331 307 -131 c566 -242 1559 -667
2530 -1082 529 -226 965 -411 968 -411 3 0 5 159 5 354 l0 354 -117 49 c-65
27 -736 306 -1490 619 -755 313 -1373 571 -1373 575 0 3 633 266 1407 584 775
318 1445 594 1491 613 l82 34 0 354 c0 195 -3 354 -7 353 -5 0 -862 -361
-1905 -802z"/>
<path d="M6930 4545 c0 -330 1 -356 18 -362 9 -4 384 -157 832 -341 448 -184
889 -364 980 -401 852 -349 1160 -477 1160 -481 0 -3 -642 -270 -1427 -595
-784 -324 -1457 -603 -1495 -618 l-68 -29 0 -355 c0 -333 1 -354 18 -349 9 3
863 368 1897 810 l1880 803 0 338 0 337 -1880 794 c-1034 437 -1888 797 -1897
800 -17 5 -18 -16 -18 -351z"/>
</g>
</svg>
